<svg width="150" height="150" viewBox="0 0 150 150" fill="none" xmlns="http://www.w3.org/2000/svg">
<g clip-path="url(#clip0_568_147)">
<path d="M49.6755 95.8762H98.2835V109.764H49.6755V95.8762ZM112.875 35.82L107.351 58.6C109.561 63.3856 110.708 68.5928 110.715 73.864L110.788 115.924C110.79 117.1 110.56 118.265 110.112 119.352C109.663 120.439 109.006 121.427 108.176 122.26C107.345 123.093 106.359 123.754 105.273 124.206C104.187 124.657 103.024 124.89 101.848 124.892L46.2115 125C43.8399 124.997 41.5662 124.054 39.8878 122.379C38.2093 120.704 37.2629 118.432 37.2555 116.06L37.1835 74C37.1655 68.6335 38.3261 63.3286 40.5835 58.46L35.0755 35.824C34.9363 35.2508 34.9907 34.6476 35.2302 34.1086C35.4697 33.5695 35.8808 33.1249 36.3995 32.844L45.5994 27.864C45.9591 27.6694 46.3587 27.56 46.7674 27.5442C47.176 27.5283 47.5828 27.6065 47.9565 27.7727C48.3302 27.9388 48.6607 28.1885 48.9227 28.5026C49.1846 28.8166 49.371 29.1866 49.4675 29.584L52.9034 43.8C54.5372 42.6573 56.2616 41.6499 58.0594 40.788V38.908C58.0573 35.2235 59.5181 31.689 62.1208 29.0811C64.7234 26.4732 68.255 25.0053 71.9394 25H76.0075C79.6902 25.0032 83.2212 26.4673 85.8255 29.071C88.43 31.6746 89.895 35.2053 89.8995 38.888V40.832C91.6915 41.6986 93.41 42.7086 95.0395 43.852L98.5035 29.584C98.6 29.1866 98.7865 28.8166 99.048 28.5026C99.31 28.1885 99.641 27.9388 100.015 27.7727C100.388 27.6065 100.795 27.5283 101.203 27.5442C101.612 27.56 102.012 27.6694 102.372 27.864L111.571 32.844C112.088 33.1267 112.496 33.5722 112.734 34.1111C112.971 34.6499 113.024 35.2521 112.884 35.824L112.875 35.82ZM63.3995 38.696C66.7979 37.6821 70.325 37.1647 73.8715 37.16H73.9394C77.5335 37.1591 81.1081 37.6888 84.5474 38.732C84.5076 36.4924 83.5907 34.3578 81.9938 32.787C80.3969 31.2163 78.2475 30.3348 76.0075 30.332H71.9394C69.7063 30.3367 67.5636 31.2147 65.9693 32.7784C64.375 34.3421 63.4555 36.4673 63.4074 38.7L63.3995 38.696ZM103.623 93.2082C103.623 92.4992 103.342 91.8197 102.841 91.3187C102.34 90.8177 101.66 90.5362 100.951 90.5362H47.0074C46.2988 90.5362 45.6192 90.8177 45.1181 91.3187C44.617 91.8197 44.3354 92.4992 44.3354 93.2082V112.436C44.3354 113.145 44.617 113.824 45.1181 114.325C45.6192 114.827 46.2988 115.108 47.0074 115.108H100.951C101.66 115.108 102.34 114.827 102.841 114.325C103.342 113.824 103.623 113.145 103.623 112.436V93.2082ZM103.623 75.2082C103.623 71.3151 102.857 67.4603 101.367 63.8637C99.877 60.2671 97.6935 56.9992 94.941 54.2465C92.188 51.4938 88.9205 49.3102 85.3235 47.8205C81.7272 46.3307 77.8723 45.564 73.9794 45.564C70.0865 45.564 66.2317 46.3307 62.6352 47.8205C59.0386 49.3102 55.7707 51.4938 53.018 54.2465C50.2653 56.9992 48.0817 60.2671 46.5919 63.8637C45.1022 67.4603 44.3354 71.3151 44.3354 75.2082C44.3215 75.5672 44.3803 75.9257 44.5082 76.2617C44.6362 76.5977 44.8305 76.9047 45.0798 77.1637C45.3292 77.4232 45.6282 77.6292 45.9591 77.7702C46.2899 77.9107 46.6458 77.9832 47.0054 77.9832C47.365 77.9832 47.7209 77.9107 48.0518 77.7702C48.3827 77.6292 48.6818 77.4232 48.9311 77.1637C49.1804 76.9047 49.3748 76.5977 49.5027 76.2617C49.6306 75.9257 49.6894 75.5672 49.6755 75.2082C49.6342 71.9904 50.2322 68.7966 51.435 65.8119C52.6378 62.8273 54.4213 60.1112 56.6821 57.8213C58.9428 55.5313 61.6358 53.7131 64.6047 52.4722C67.5737 51.2312 70.7595 50.5922 73.9774 50.5922C77.1953 50.5922 80.3812 51.2312 83.3501 52.4722C86.319 53.7131 89.012 55.5313 91.273 57.8213C93.5335 60.1112 95.317 62.8273 96.52 65.8119C97.7225 68.7966 98.3205 71.9904 98.2795 75.2082C98.2795 75.9167 98.561 76.5962 99.062 77.0972C99.563 77.5987 100.243 77.8802 100.951 77.8802C101.66 77.8802 102.34 77.5987 102.841 77.0972C103.342 76.5962 103.623 75.9167 103.623 75.2082Z" fill="white"/>
</g>
<defs>
<clipPath id="clip0_568_147">
<rect width="80" height="100" fill="white" transform="translate(35 25)"/>
</clipPath>
</defs>
</svg>
